<svg xmlns="http://www.w3.org/2000/svg" xmlns:xlink="http://www.w3.org/1999/xlink" width="203" height="203" viewBox="0 0 203 203">
  <defs>
    <clipPath id="clip-clients">
      <rect width="203" height="203"/>
    </clipPath>
  </defs>
  <g id="clients" clip-path="url(#clip-clients)">
    <rect width="203" height="203" fill="#fff"/>
    <g id="Group_921" data-name="Group 921" transform="translate(1826.387 -944.21)">
      <path id="Path_2835" data-name="Path 2835" d="M-1470.39,1191.157a3.72,3.72,0,0,0-.245.5,6.9,6.9,0,0,1-6.49,5.232c-4.575.16-9.158.066-13.738.069a5.449,5.449,0,0,1-.914-.175v-1.263c0-6.067.116-12.137-.026-18.2-.168-7.234-1.693-14.135-5.984-20.163-1.222-1.717-2.611-3.315-4-5.065a12.642,12.642,0,0,1,6.206-3.081,34.671,34.671,0,0,1,12.726-.066,15.662,15.662,0,0,1,12.25,12.885,4.3,4.3,0,0,0,.217.648Z" transform="translate(-194.321 -106.445)" fill="#343434"/>
      <path id="Path_2836" data-name="Path 2836" d="M-1664.308,1204.343q-10.634,0-21.266,0a8.966,8.966,0,0,1-6.029-1.881,7.732,7.732,0,0,1-3.026-5.995c-.063-6.734-.243-13.477.029-20.2.462-11.381,5.727-19.879,16.021-25.048a28.634,28.634,0,0,1,11.3-2.871c5.01-.294,10.048-.386,14.953.82,10.856,2.668,20.079,13.176,20.83,24.344.518,7.719.24,15.5.217,23.247a9.256,9.256,0,0,1-.925,3.235,5.5,5.5,0,0,1-4.663,3.663c-3.965.39-7.949.67-11.931.768-5.167.127-10.339.031-15.509.031Z" transform="translate(-61.955 -106.291)" fill="#343434"/>
      <path id="Path_2837" data-name="Path 2837" d="M-1638.1,993.217a20.4,20.4,0,0,1,20.448,20.454,20.482,20.482,0,0,1-20.511,20.425,20.484,20.484,0,0,1-20.387-20.431A20.4,20.4,0,0,1-1638.1,993.217Z" transform="translate(-86.787 0)" fill="#343434"/>
      <path id="Path_2838" data-name="Path 2838" d="M-1753.651,1152.5c-1.354,1.709-2.738,3.3-3.951,5.018a31.464,31.464,0,0,0-5.771,16.885c-.345,7.188-.22,14.4-.3,21.6,0,.386,0,.772,0,1.251-.558.055-1.054.147-1.55.147-4.189.006-8.38.034-12.569-.021-4.454-.059-7.265-2.978-7.267-7.458q-.007-12.394,0-24.786A15.753,15.753,0,0,1-1769.3,1149a72.14,72.14,0,0,1,9.813.55A11.1,11.1,0,0,1-1753.651,1152.5Z" transform="translate(0 -106.862)" fill="#343434"/>
      <path id="Path_2839" data-name="Path 2839" d="M-1753.348,1041.125a12.891,12.891,0,0,1,12.868,12.954,12.964,12.964,0,0,1-12.979,12.877,12.967,12.967,0,0,1-12.871-12.988A12.9,12.9,0,0,1-1753.348,1041.125Z" transform="translate(-12.849 -32.864)" fill="#343434"/>
      <path id="Path_2840" data-name="Path 2840" d="M-1489.875,1041.125a12.892,12.892,0,0,1,12.88,12.943,12.965,12.965,0,0,1-12.968,12.889,12.97,12.97,0,0,1-12.882-12.978A12.9,12.9,0,0,1-1489.875,1041.125Z" transform="translate(-193.595 -32.863)" fill="#343434"/>
    </g>
  </g>
</svg>
